<?xml version="1.0" standalone="no"?>
<!DOCTYPE svg PUBLIC "-//W3C//DTD SVG 20010904//EN"
 "http://www.w3.org/TR/2001/REC-SVG-20010904/DTD/svg10.dtd">
<svg version="1.0" xmlns="http://www.w3.org/2000/svg"
 width="1024.000000pt" height="1024.000000pt" viewBox="0 0 1024.000000 1024.000000"
 preserveAspectRatio="xMidYMid meet">
<metadata>
Created by potrace 1.16, written by Peter Selinger 2001-2019
</metadata>
<g transform="translate(0.000000,1024.000000) scale(0.100000,-0.100000)"
fill="#000000" stroke="none">
<path d="M6625 8390 c-536 -81 -995 -292 -1484 -684 -153 -122 -180 -180 -128
-271 69 -121 160 -112 361 39 272 203 506 342 730 435 118 49 114 50 77 -30
-46 -99 -65 -211 -58 -353 33 -753 930 -1079 1449 -527 213 226 270 527 163
859 l-8 24 44 -23 c136 -69 331 -197 569 -373 219 -163 308 -177 380 -61 66
107 26 159 -339 434 -569 430 -1186 616 -1756 531z m460 -325 c385 -101 516
-605 227 -876 -430 -405 -1088 102 -810 624 108 202 358 310 583 252z"/>
<path d="M8392 7263 c-18 -10 -54 -36 -80 -59 -245 -210 -546 -392 -767 -464
-226 -74 -262 -283 -61 -350 161 -53 1068 482 1141 674 50 130 -109 265 -233
199z"/>
<path d="M5400 7157 c-45 -17 -433 -216 -745 -382 -364 -195 -557 -282 -865
-392 -134 -48 -168 -59 -160 -51 7 7 353 221 550 340 203 122 234 171 180 278
-57 112 -166 124 -310 34 -41 -26 -163 -101 -270 -167 -815 -502 -857 -533
-948 -719 -83 -170 -77 -33 -77 -1653 l0 -1440 28 -80 c78 -222 222 -369 437
-447 l65 -23 1605 -3 c1795 -3 1694 -6 1849 68 199 96 329 300 331 522 l0 37
-447 3 -448 3 -76 27 c-577 204 -636 969 -97 1253 136 72 172 76 646 82 l422
6 0 463 c0 255 -4 464 -8 464 -14 0 -450 -266 -787 -480 -1063 -675 -1349
-828 -1878 -1004 -456 -152 -763 -211 -1149 -223 l-228 -6 0 111 0 112 138 0
c500 0 1083 140 1662 400 247 110 588 312 1330 785 816 520 768 495 1500 790
201 80 375 153 387 161 95 61 114 163 46 244 -64 77 -127 80 -279 16 -60 -24
-217 -87 -349 -139 -574 -227 -816 -356 -1515 -809 -879 -570 -1194 -741
-1645 -894 -433 -147 -758 -208 -1090 -202 l-180 3 0 160 0 160 205 6 c659 20
1117 206 2189 889 239 152 664 420 781 493 149 92 408 190 625 237 171 36 221
77 213 177 -16 192 -171 204 -623 52 -232 -79 -292 -114 -1105 -631 -652 -415
-852 -529 -1166 -663 -346 -149 -755 -230 -1041 -208 l-83 6 0 143 c0 143 0
144 23 144 556 2 1078 202 2072 793 204 121 395 234 425 252 97 58 232 121
350 164 255 94 300 145 246 274 -81 196 -317 119 -1151 -375 -981 -581 -1395
-748 -1859 -748 l-109 0 6 74 c15 171 66 220 274 257 481 85 847 228 1593 621
151 80 370 193 487 252 231 116 253 134 253 212 0 118 -124 210 -230 171z
m1388 -2211 c43 -55 37 -322 -8 -346 -71 -38 -94 10 -91 185 3 174 40 235 99
161z m-10 -1982 c81 -57 -65 -226 -227 -263 -34 -7 -45 -6 -66 11 -48 37 -23
102 45 113 49 8 110 52 139 99 35 57 68 69 109 40z m-2709 -158 c26 -24 27
-67 2 -90 -16 -14 -40 -16 -176 -14 l-158 3 -21 28 c-25 34 -8 77 34 87 64 16
297 6 319 -14z m917 -1 c73 -73 21 -105 -174 -105 -179 0 -213 13 -198 75 14
56 321 81 372 30z m902 9 c44 -31 48 -80 8 -106 -28 -19 -325 -9 -346 12 -35
35 -20 84 30 103 38 14 286 7 308 -9z"/>
<path d="M6239 4240 c-403 -61 -554 -562 -253 -840 127 -117 157 -121 870
-118 l599 3 62 29 c160 74 188 141 188 456 0 307 -26 375 -173 447 l-57 28
-590 1 c-324 1 -615 -2 -646 -6z m189 -279 c88 -45 140 -145 123 -236 -39
-206 -311 -262 -421 -88 -124 195 92 429 298 324z"/>
<path d="M4400 2229 c-920 -22 -1390 -61 -1461 -118 l-23 -18 26 -17 c121 -79
1513 -135 2663 -106 1102 27 1580 85 1348 162 -219 73 -1523 122 -2553 97z"/>
</g>
</svg>
